<svg width="70" height="70" viewBox="0 0 70 70" fill="none" xmlns="http://www.w3.org/2000/svg">
<g clip-path="url(#clip0_1_530)">
<path fill-rule="evenodd" clip-rule="evenodd" d="M33.3273 3.44399C34.3318 2.741 35.6682 2.741 36.6727 3.44399L65.8394 23.8607C66.619 24.4065 67.0833 25.2983 67.0833 26.2501V46.6667C67.0833 47.6185 66.619 48.5104 65.8394 49.0561L36.6727 69.4727C35.6682 70.176 34.3318 70.176 33.3273 69.4727L4.16075 49.0561C3.38103 48.5104 2.91667 47.6185 2.91667 46.6667V26.2501C2.91667 25.2983 3.38103 24.4065 4.16075 23.8607L33.3273 3.44399ZM8.75 31.8521V41.0647L15.3306 36.4584L8.75 31.8521ZM20.4167 40.0188L10.9194 46.6667L32.0833 61.4814V48.1855L20.4167 40.0188ZM37.9167 48.1855V61.4814L59.0806 46.6667L49.5833 40.0188L37.9167 48.1855ZM54.6694 36.4584L61.25 41.0647V31.8521L54.6694 36.4584ZM59.0806 26.2501L49.5833 32.898L37.9167 24.7315V11.4353L59.0806 26.2501ZM32.0833 11.4353V24.7315L20.4167 32.898L10.9194 26.2501L32.0833 11.4353ZM35 29.8105L25.5027 36.4584L35 43.1064L44.4973 36.4584L35 29.8105Z" fill="#F9F9F9"/>
</g>
<defs>
<clipPath id="clip0_1_530">
<rect width="70" height="70" fill="white"/>
</clipPath>
</defs>
</svg>
