<svg width="95" height="95" viewBox="0 0 95 95" fill="none" xmlns="http://www.w3.org/2000/svg">
<path fill-rule="evenodd" clip-rule="evenodd" d="M47.5 47.5C47.5 40.9417 52.8167 35.625 59.375 35.625C65.9333 35.625 71.25 40.9417 71.25 47.5C71.25 54.0583 65.9333 59.375 59.375 59.375C52.8167 59.375 47.5 54.0583 47.5 47.5Z" fill="#1ABCFE"/>
<path fill-rule="evenodd" clip-rule="evenodd" d="M23.75 71.25C23.75 64.6917 29.0666 59.375 35.625 59.375H47.5V71.25C47.5 77.8083 42.1833 83.125 35.625 83.125C29.0666 83.125 23.75 77.8083 23.75 71.25Z" fill="#0ACF83"/>
<path fill-rule="evenodd" clip-rule="evenodd" d="M47.5 11.875V35.625H59.375C65.9333 35.625 71.25 30.3083 71.25 23.75C71.25 17.1916 65.9333 11.875 59.375 11.875H47.5Z" fill="#FF7262"/>
<path fill-rule="evenodd" clip-rule="evenodd" d="M23.75 23.75C23.75 30.3083 29.0666 35.625 35.625 35.625H47.5V11.875H35.625C29.0666 11.875 23.75 17.1916 23.75 23.75Z" fill="#F24E1E"/>
<path fill-rule="evenodd" clip-rule="evenodd" d="M23.75 47.5C23.75 54.0583 29.0666 59.375 35.625 59.375H47.5V35.625H35.625C29.0666 35.625 23.75 40.9417 23.75 47.5Z" fill="#A259FF"/>
</svg>
