<svg width="95" height="95" viewBox="0 0 95 95" fill="none" xmlns="http://www.w3.org/2000/svg">
<g clip-path="url(#clip0_1_373)">
<path fill-rule="evenodd" clip-rule="evenodd" d="M47.5 0C73.7342 0 95 21.8022 95 48.7014C95 70.2142 81.4055 88.4638 62.5433 94.9095C60.135 95.3893 59.28 93.8684 59.28 92.5717C59.28 90.9662 59.337 85.7223 59.337 79.2053C59.337 74.6643 57.817 71.7006 56.1118 70.1901C66.69 68.9836 77.805 64.8649 77.805 46.1594C77.805 40.8394 75.962 36.4981 72.9125 33.0876C73.4065 31.8574 75.0357 26.9038 72.447 20.1968C72.447 20.1968 68.4665 18.8918 59.3987 25.1903C55.6035 24.1121 51.5375 23.5695 47.5 23.5505C43.4625 23.5695 39.4013 24.1121 35.6108 25.1903C26.5335 18.8918 22.5435 20.1968 22.5435 20.1968C19.9643 26.9038 21.5935 31.8574 22.0828 33.0876C19.0475 36.4981 17.1903 40.8394 17.1903 46.1594C17.1903 64.8174 28.2815 68.9992 38.8313 70.2295C37.4728 71.4455 36.2425 73.5906 35.815 76.7399C33.1075 77.9844 26.2295 80.1382 21.9925 72.6949C21.9925 72.6949 19.4797 68.0156 14.7108 67.6736C14.7108 67.6736 10.0795 67.6121 14.3877 70.6331C14.3877 70.6331 17.499 72.1293 19.6602 77.7581C19.6602 77.7581 22.4485 86.4504 35.663 83.5054C35.6868 87.5761 35.7295 91.4127 35.7295 92.5717C35.7295 93.8589 34.8555 95.3654 32.4852 94.9142C13.6087 88.4779 0 70.2189 0 48.7014C0 21.8022 21.2705 0 47.5 0Z" fill="white"/>
</g>
<defs>
<clipPath id="clip0_1_373">
<rect width="95" height="95" fill="white"/>
</clipPath>
</defs>
</svg>
