<svg width="95" height="95" viewBox="0 0 95 95" fill="none" xmlns="http://www.w3.org/2000/svg">
<g clip-path="url(#clip0_1_350)">
<path d="M0 0H95V95H0V0Z" fill="#F7DF1E"/>
<path d="M24.979 79.3889L32.249 74.9892C33.6516 77.476 34.9274 79.58 37.9878 79.58C40.9213 79.58 42.7708 78.4325 42.7708 73.969V43.6142H51.6984V74.0952C51.6984 83.3418 46.2783 87.5506 38.3705 87.5506C31.2288 87.5506 27.0831 83.8518 24.9788 79.3882" fill="black"/>
<path d="M56.5476 78.4323L63.8168 74.2235C65.7303 77.3485 68.2174 79.6441 72.6172 79.6441C76.3164 79.6441 78.6752 77.7946 78.6752 75.2438C78.6752 72.1828 76.2521 71.0986 72.1707 69.3137L69.9394 68.3564C63.4983 65.6148 59.2256 62.1713 59.2256 54.9014C59.2256 48.2056 64.3271 43.1038 72.2986 43.1038C77.9742 43.1038 82.0554 45.0808 84.9885 50.2463L78.0375 54.7099C76.507 51.968 74.8494 50.8841 72.2988 50.8841C69.6841 50.8841 68.026 52.5421 68.026 54.7099C68.026 57.3883 69.6841 58.4726 73.5099 60.1308L75.7417 61.0873C83.3304 64.3397 87.6031 67.6554 87.6031 75.1162C87.6031 83.1517 81.29 87.5514 72.8087 87.5514C64.5187 87.5514 59.1618 83.5979 56.5476 78.4323Z" fill="black"/>
</g>
<defs>
<clipPath id="clip0_1_350">
<rect width="95" height="95" fill="white"/>
</clipPath>
</defs>
</svg>
