<svg width="70" height="70" viewBox="0 0 70 70" fill="none" xmlns="http://www.w3.org/2000/svg">
<path d="M54.6 11.6665H15.6625C15.1606 11.643 14.659 11.7187 14.1864 11.8893C13.7138 12.0599 13.2796 12.322 12.9084 12.6607C12.5372 12.9993 12.2365 13.4078 12.0234 13.8628C11.8104 14.3179 11.6891 14.8104 11.6667 15.3124V54.3375C11.6961 55.3878 12.1265 56.3873 12.8696 57.1302C13.6127 57.8733 14.612 58.3038 15.6625 58.3333H54.6C55.6211 58.2878 56.5839 57.8439 57.2819 57.0969C57.9798 56.35 58.3573 55.3595 58.3333 54.3375V15.3124C58.3418 14.8238 58.2502 14.3388 58.0644 13.8869C57.8786 13.435 57.6024 13.0258 57.2527 12.6844C56.9033 12.343 56.4877 12.0767 56.0315 11.9017C55.5753 11.7266 55.0882 11.6466 54.6 11.6665ZM26.25 50.575H19.4542V29.7791H26.25V50.575ZM23.0125 26.629C22.5383 26.6456 22.0658 26.5639 21.6246 26.389C21.1835 26.2142 20.7833 25.95 20.4491 25.6131C20.115 25.2762 19.8541 24.8739 19.6829 24.4313C19.5116 23.9888 19.4338 23.5156 19.4542 23.0415C19.4332 22.5623 19.5126 22.0841 19.6874 21.6374C19.8621 21.1907 20.1283 20.7854 20.4688 20.4476C20.8093 20.1098 21.2167 19.8469 21.6648 19.6759C22.1129 19.5047 22.5918 19.4292 23.0708 19.454C23.5451 19.4375 24.0176 19.5192 24.4587 19.6941C24.8998 19.8689 25.3001 20.133 25.6342 20.4699C25.9684 20.8068 26.2293 21.2092 26.4005 21.6517C26.5717 22.0943 26.6496 22.5675 26.6292 23.0415C26.6501 23.5207 26.5707 23.999 26.396 24.4457C26.2212 24.8924 25.9551 25.2977 25.6145 25.6355C25.274 25.9733 24.8666 26.2361 24.4185 26.4072C23.9704 26.5783 23.4915 26.6539 23.0125 26.629ZM50.575 50.575H43.75V39.2C43.75 36.4875 42.7875 34.6208 40.3667 34.6208C39.6148 34.6272 38.883 34.8661 38.2722 35.3048C37.6612 35.7434 37.2009 36.3603 36.9542 37.0708C36.7646 37.6034 36.6853 38.1689 36.7208 38.7333V50.575H30.0125V29.7791H36.7208V32.6958C37.3173 31.6 38.2048 30.6906 39.2858 30.0676C40.3667 29.4449 41.5987 29.133 42.8458 29.1665C47.25 29.1665 50.575 32.0833 50.575 38.2958V50.575Z" fill="#F9F9F9"/>
</svg>
