<svg width="150" height="150" viewBox="0 0 150 150" fill="none" xmlns="http://www.w3.org/2000/svg">
<path d="M33.2602 40.4758H40.6696C45.7587 40.4758 49.2759 43.3946 49.2759 49.6805V98.7024C49.2759 103.791 46.0571 107.684 41.043 107.832H33.2602V40.4758ZM13.3524 123.026C13.3524 124.821 14.1759 125.87 15.8962 125.87H42.0165C57.2837 125.72 69.1837 116.515 69.1837 99.3008V48.8571C69.1837 31.7196 57.3587 22.4383 41.8665 22.2883H15.8962C14.3243 22.2883 13.3524 23.4118 13.3524 25.2071V123.026Z" fill="#F9F9F9"/>
<path d="M138.741 47.0617C138.741 33.8899 130.434 20.7164 112.248 20.7164C95.932 20.7164 84.332 31.868 84.332 46.6867V101.546C84.332 117.787 97.2039 127.516 112.248 127.516C127.216 127.516 139.191 117.787 139.191 101.546V91.368C139.191 89.1227 138.443 88.5992 136.721 88.5992H122.726C121.004 88.5992 120.48 89.2727 120.48 91.518V100.423C120.48 105.138 117.86 109.479 112.398 109.479C107.234 109.479 104.24 105.138 104.24 100.423V47.5102C104.24 42.7961 107.532 38.6789 112.398 38.6789C117.337 38.6789 120.105 43.2446 120.105 47.6602V54.6211C120.105 56.7164 120.63 57.6133 122.426 57.6133H136.346C138.293 57.6133 138.741 56.6414 138.741 54.3211V47.0617Z" fill="#F9F9F9"/>
<mask id="mask0_1_74" style="mask-type:luminance" maskUnits="userSpaceOnUse" x="2" y="58" width="146" height="30">
<path d="M2.79504 58.0273H147.205V87.7758H2.79504V58.0273Z" fill="white"/>
</mask>
<g mask="url(#mask0_1_74)">
<path d="M2.79504 58.0273H147.205V87.7758H2.79504V58.0273Z" fill="#0F0028"/>
</g>
<path d="M8.81831 70.103H9.48394C9.94175 70.103 10.2589 70.3655 10.2589 70.9311V75.342C10.2589 75.7999 9.96831 76.1499 9.51831 76.1624H8.81831V70.103ZM7.02612 77.5295C7.02612 77.692 7.10112 77.7858 7.25581 77.7858H9.60581C10.9792 77.7717 12.0496 76.9436 12.0496 75.3952V70.8577C12.0496 69.3155 10.9855 68.4811 9.59175 68.467H7.25581C7.11362 68.467 7.02612 68.5686 7.02612 68.7295V77.5295Z" fill="#05A3CC"/>
<path d="M21.7657 68.7295C21.7657 68.5686 21.6969 68.467 21.5423 68.467H20.1954C20.0548 68.467 19.9735 68.5686 19.9735 68.7295V77.5295C19.9735 77.692 20.0407 77.7858 20.1954 77.7858H21.5423C21.6969 77.7858 21.7657 77.692 21.7657 77.5295V68.7295Z" fill="#05A3CC"/>
<path d="M31.5823 70.7561C31.5823 70.3327 31.8448 69.9483 32.3026 69.9483C32.7541 69.9483 33.0166 70.3327 33.0166 70.7561V73.9952H31.5823V70.7561ZM34.8135 70.6561C34.8135 69.3624 33.6432 68.3186 32.2963 68.3186C30.9494 68.3186 29.7838 69.3624 29.7838 70.6561V77.5233C29.7838 77.6639 29.8588 77.7858 29.9604 77.7858H31.3807C31.5416 77.7858 31.5823 77.6717 31.5823 77.5233V75.5639H33.0166V77.517C33.0166 77.6577 33.0979 77.7858 33.2323 77.7858H34.5994C34.7541 77.7858 34.8135 77.6514 34.8135 77.517V70.6561Z" fill="#05A3CC"/>
<path d="M47.5805 77.7858C47.7274 77.7858 47.7946 77.6514 47.7946 77.517V70.6561C47.7946 69.3624 46.6243 68.3186 45.2774 68.3186C43.9305 68.3186 42.7649 69.3624 42.7649 70.6561V77.5233C42.7649 77.6639 42.8399 77.7858 42.9415 77.7858H44.3618C44.5165 77.7858 44.5633 77.6717 44.5633 77.5233V70.7561C44.5633 70.3327 44.8258 69.9483 45.2836 69.9483C45.7352 69.9483 45.9977 70.3327 45.9977 70.7561V77.517C45.9977 77.6577 46.079 77.7858 46.2133 77.7858H47.5805Z" fill="#05A3CC"/>
<path d="M57.5991 76.1624V73.8811H59.5647C59.6928 73.8811 59.7803 73.8139 59.7803 73.6514V72.4999C59.7803 72.3327 59.6788 72.2639 59.5647 72.2639H57.5991V70.103H60.0631C60.1834 70.103 60.2506 70.0233 60.2506 69.8608V68.717C60.2506 68.5483 60.1834 68.467 60.0631 68.467H56.0366C55.8944 68.467 55.8069 68.5686 55.8069 68.7295V77.5295C55.8069 77.692 55.8819 77.7858 56.0366 77.7858H60.0959C60.2038 77.7858 60.2913 77.7124 60.2913 77.5499V76.392C60.2913 76.2374 60.2038 76.1624 60.0959 76.1624H57.5991Z" fill="#05A3CC"/>
<path d="M83.0088 70.6952C83.0088 69.5108 82.262 68.3264 80.626 68.3264C79.1573 68.3264 78.1135 69.3295 78.1135 70.6624V75.5983C78.1135 77.0592 79.2729 77.9342 80.626 77.9342C81.9729 77.9342 83.0495 77.0592 83.0495 75.5983V74.6811C83.0495 74.4795 82.9823 74.4327 82.8276 74.4327H81.5682C81.4135 74.4327 81.3667 74.4936 81.3667 74.6952V75.4967C81.3667 75.9202 81.1307 76.3108 80.6385 76.3108C80.1745 76.3108 79.9057 75.9202 79.9057 75.4967V70.7358C79.9057 70.3124 80.201 69.942 80.6385 69.942C81.0838 69.942 81.3323 70.353 81.3323 70.7499V71.3764C81.3323 71.5639 81.3792 71.6452 81.5417 71.6452H82.7932C82.9682 71.6452 83.0088 71.5577 83.0088 71.3483V70.6952Z" fill="#05A3CC"/>
<path d="M95.7742 70.6624C95.7742 69.1936 94.6039 68.3264 93.2492 68.3264C91.9039 68.3264 90.7445 69.2014 90.7445 70.6624V75.5983C90.7445 77.0249 91.9039 77.9342 93.2492 77.9342C94.6039 77.9342 95.7742 77.0592 95.7742 75.5983V70.6624ZM93.2633 69.942C93.7148 69.942 93.9836 70.3327 93.9836 70.7639V75.5436C93.9836 75.9686 93.7148 76.3108 93.2492 76.3108C92.7914 76.3108 92.5367 75.928 92.5367 75.503V70.7639C92.5367 70.3327 92.8054 69.942 93.2633 69.942Z" fill="#05A3CC"/>
<path d="M105.491 70.103H106.157C106.615 70.103 106.932 70.3655 106.932 70.9311V75.342C106.932 75.7999 106.641 76.1499 106.191 76.1624H105.491V70.103ZM103.699 77.5295C103.699 77.692 103.774 77.7858 103.929 77.7858H106.279C107.652 77.7717 108.723 76.9436 108.723 75.3952V70.8577C108.723 69.3155 107.658 68.4811 106.265 68.467H103.929C103.787 68.467 103.699 68.5686 103.699 68.7295V77.5295Z" fill="#05A3CC"/>
<path d="M118.439 68.7295C118.439 68.5686 118.37 68.467 118.215 68.467H116.868C116.728 68.467 116.646 68.5686 116.646 68.7295V77.5295C116.646 77.692 116.714 77.7858 116.868 77.7858H118.215C118.37 77.7858 118.439 77.692 118.439 77.5295V68.7295Z" fill="#05A3CC"/>
<path d="M131.272 77.7858C131.419 77.7858 131.486 77.6514 131.486 77.517V70.6561C131.486 69.3624 130.316 68.3186 128.969 68.3186C127.622 68.3186 126.457 69.3624 126.457 70.6561V77.5233C126.457 77.6639 126.532 77.7858 126.633 77.7858H128.054C128.208 77.7858 128.255 77.6717 128.255 77.5233V70.7561C128.255 70.3327 128.518 69.9483 128.975 69.9483C129.427 69.9483 129.689 70.3327 129.689 70.7561V77.517C129.689 77.6577 129.771 77.7858 129.905 77.7858H131.272Z" fill="#05A3CC"/>
<path d="M142.603 75.5436C142.603 75.9686 142.286 76.3108 141.855 76.3108C141.458 76.3108 141.143 75.9874 141.143 75.5092V70.7233C141.143 70.292 141.418 69.942 141.849 69.942C142.307 69.942 142.569 70.3389 142.569 70.7436V71.3358C142.569 71.517 142.61 71.592 142.764 71.592H144.038C144.193 71.592 144.246 71.5108 144.246 71.3092V70.6952C144.246 69.8405 143.755 68.3264 141.863 68.3264C140.51 68.3264 139.35 69.2014 139.35 70.6624V75.5983C139.35 77.0858 140.53 77.9342 141.855 77.9342C143.21 77.9342 144.286 77.0592 144.286 75.5983V73.0045C144.286 72.8436 144.205 72.7499 144.044 72.7499H142.105C141.971 72.7499 141.903 72.8295 141.903 72.9858V74.0092C141.903 74.1702 141.971 74.2374 142.105 74.2374H142.603V75.5436Z" fill="#05A3CC"/>
<path d="M2.79504 58.0781H147.205" stroke="#05A3CC" stroke-width="4.08961"/>
<path d="M2.79504 87.825H147.205" stroke="#05A3CC" stroke-width="4.08961"/>
</svg>
