<svg width="95" height="95" viewBox="0 0 95 95" fill="none" xmlns="http://www.w3.org/2000/svg">
<g clip-path="url(#clip0_1_370)">
<path d="M47.5 95C73.7335 95 95 73.7335 95 47.5C95 21.2665 73.7335 0 47.5 0C21.2665 0 0 21.2665 0 47.5C0 73.7335 21.2665 95 47.5 95Z" fill="#13AA52"/>
<path d="M60.197 41.6961C57.1967 28.4545 50.106 24.1007 49.3425 22.4373C48.5075 21.2637 47.6614 19.1763 47.6614 19.1763C47.6475 19.141 47.6253 19.0789 47.5993 19.0186C47.513 20.1921 47.4685 20.6449 46.3589 21.8287C44.6407 23.172 35.8254 30.5688 35.1083 45.613C34.4394 59.644 45.2438 68.0048 46.705 69.0708L46.871 69.1886V69.1784C46.8803 69.2489 47.3349 72.5182 47.654 75.9824H48.7989C49.0675 73.5337 49.4701 71.1015 50.0049 68.6969L50.0977 68.6366C50.7513 68.1679 51.3744 67.6582 51.9634 67.1105L52.0302 67.0501C55.1362 64.1807 60.7202 57.5437 60.6655 46.9619C60.6539 45.1968 60.4972 43.4356 60.197 41.6961ZM47.5325 61.1488C47.5325 61.1488 47.5325 41.4697 48.1819 41.4734C48.6884 41.4734 49.3444 66.8572 49.3444 66.8572C48.4426 66.7486 47.5325 62.6796 47.5325 61.1488Z" fill="white"/>
</g>
<defs>
<clipPath id="clip0_1_370">
<rect width="95" height="95" fill="white"/>
</clipPath>
</defs>
</svg>
