<svg width="95" height="95" viewBox="0 0 95 95" fill="none" xmlns="http://www.w3.org/2000/svg">
<path d="M50.9809 6.82433C48.8736 5.63923 46.1264 5.64455 44.0174 6.82433C33.4545 12.6536 22.8915 18.4847 12.3267 24.3113C10.2709 25.3928 8.88439 27.6004 8.90651 29.8918V65.113C8.89167 67.4491 10.3497 69.678 12.4585 70.7447C15.493 72.3591 18.4413 74.1374 21.5307 75.6443C25.0993 77.398 29.5641 77.7857 33.1764 75.957C36.1086 74.4414 37.411 71.0704 37.4071 67.9725C37.4309 56.3487 37.411 44.7245 37.4163 33.1004C37.4861 32.5838 37.0981 32.0316 36.5346 32.0441C35.1847 32.0227 33.8331 32.0316 32.4832 32.0405C31.9731 31.9924 31.4753 32.4161 31.5139 32.9288C31.4958 44.4778 31.5174 56.0304 31.5029 67.5812C31.5323 69.179 30.4528 70.7144 28.913 71.2542C25.3567 72.5007 15.2059 65.9098 15.2059 65.9098C14.8334 65.7373 14.5968 65.3333 14.6333 64.9319C14.6333 53.3116 14.6351 41.691 14.6333 30.0725C14.5821 29.6041 14.8708 29.1822 15.301 28.991C25.8291 23.196 36.3517 17.3866 46.8798 11.5881C47.2456 11.344 47.7553 11.3448 48.1202 11.5899C58.6482 17.3866 69.1728 23.1907 79.7026 28.9859C80.1343 29.1769 80.4107 29.6059 80.3667 30.0725C80.3649 41.691 80.3703 53.3116 80.3632 64.9304C80.3943 65.3416 80.1818 65.74 79.7979 65.9205C69.3681 71.684 58.8195 77.2617 48.4841 83.1927C48.0332 83.4513 47.5223 83.7443 47.017 83.4593C44.2991 81.9559 41.6142 80.394 38.9052 78.8761C38.6107 78.6924 38.2357 78.6134 37.9284 78.8191C36.7139 79.4592 35.5716 79.9775 34.1768 80.5297C32.2181 81.3052 32.531 81.6222 34.2977 82.6515C37.4656 84.4443 40.6389 86.23 43.8069 88.0246C45.8924 89.3261 48.6946 89.4187 50.8473 88.2161C61.4119 82.3941 71.9732 76.5652 82.5399 70.7432C84.6429 69.6706 86.1083 67.4506 86.0935 65.1127V29.8918C86.1139 27.6469 84.7804 25.4786 82.7866 24.3811C72.1869 18.5234 61.5823 12.6785 50.9809 6.82433Z" fill="#8CC84B"/>
<path d="M66.9213 33.2684C62.7748 31.0501 57.8419 30.932 53.2341 31.222C49.9053 31.551 46.4042 32.4695 43.9791 34.8558C41.4915 37.2545 40.95 41.1282 42.1316 44.2596C42.9783 46.4725 45.1096 47.9115 47.3136 48.6726C50.1526 49.6749 53.1344 49.9848 56.1171 50.2948C58.8376 50.5774 61.5591 50.8603 64.174 51.6687C65.2421 52.0226 66.486 52.5641 66.8132 53.7263C67.1154 55.1027 66.7841 56.7025 65.6667 57.6588C62.1172 60.4681 52.2438 60.0376 48.7368 57.8265C47.3189 56.8845 46.7079 55.217 46.4594 53.6278C46.4318 53.1326 46.0331 52.6784 45.4955 52.7161C44.1492 52.7001 42.8028 52.7036 41.4565 52.7143C40.9868 52.6748 40.4985 53.0091 40.4727 53.4886C40.196 60.767 46.8807 63.94 53.1522 64.6386C56.7352 64.98 60.3968 64.9604 63.9252 64.1915C66.5775 63.5876 69.2369 62.4756 71.0627 60.4328C73.3142 57.95 73.7568 54.2536 72.7471 51.1611C71.9753 48.8534 69.7692 47.3732 67.5141 46.6117C64.4474 45.5602 60.8131 44.995 58.0355 44.7304C53.9983 44.346 49.2008 44.503 48.0581 41.8502C47.6024 40.4611 47.9901 38.7362 49.2667 37.8818C52.6442 35.5908 59.5184 35.8951 63.0162 37.6066C64.6223 38.4109 65.553 40.0627 65.9371 41.7302C66.0084 42.2201 66.3379 42.7313 66.9049 42.7099C68.2421 42.7366 69.5792 42.717 70.916 42.7188C71.3753 42.7509 71.8782 42.4917 71.9678 42.0215C71.9111 38.5361 70.1314 34.9683 66.9213 33.2684Z" fill="#8CC84B"/>
</svg>
