<svg width="95" height="95" viewBox="0 0 95 95" fill="none" xmlns="http://www.w3.org/2000/svg">
<path d="M78.1091 32.5908C77.1236 32.2516 76.1024 31.9306 75.0509 31.6271C75.2237 30.9218 75.3823 30.2256 75.5234 29.5413C77.8383 18.3042 76.3247 9.25146 71.1562 6.27092C66.2003 3.41299 58.0952 6.39285 49.9095 13.5166C49.1223 14.2017 48.333 14.9269 47.544 15.687C47.0182 15.1841 46.4934 14.6981 45.9698 14.2333C37.3909 6.61606 28.7919 3.40605 23.6285 6.39521C18.6773 9.26144 17.211 17.7718 19.2948 28.4213C19.4961 29.45 19.7313 30.5004 19.9973 31.5684C18.7803 31.9139 17.6054 32.2822 16.4812 32.674C6.42338 36.1806 0 41.6763 0 47.3768C0 53.2643 6.89551 59.1696 17.3715 62.7502C18.1982 63.0328 19.0561 63.3 19.9401 63.5536C19.6532 64.7087 19.4036 65.8407 19.1941 66.9447C17.2071 77.4094 18.7588 85.7188 23.6968 88.5669C28.7973 91.5082 37.3575 88.4849 45.6928 81.1987C46.3517 80.6228 47.0128 80.012 47.6752 79.3718C48.5337 80.1985 49.3909 80.9809 50.2435 81.7148C58.3172 88.6626 66.2914 91.4681 71.2249 88.612C76.3203 85.6623 77.9763 76.7361 75.8264 65.8759C75.6622 65.0464 75.4711 64.1991 75.2565 63.3367C75.8577 63.1589 76.4478 62.9755 77.0233 62.7847C87.9141 59.1763 95 53.3429 95 47.3768C95 41.6557 88.3695 36.1229 78.1091 32.5908ZM75.7469 58.9325C75.2275 59.1045 74.6945 59.2707 74.1513 59.4318C72.949 55.6256 71.3263 51.5782 69.3406 47.3966C71.2355 43.3145 72.7955 39.3189 73.9641 35.5373C74.9359 35.8186 75.8792 36.1152 76.7881 36.4282C85.5792 39.4545 90.9416 43.929 90.9416 47.3768C90.9416 51.0493 85.1503 55.8167 75.7469 58.9325ZM71.8451 66.664C72.7958 71.4663 72.9316 75.808 72.3019 79.2022C71.7361 82.2521 70.5982 84.2855 69.1913 85.0998C66.1974 86.8328 59.795 84.5802 52.8902 78.6384C52.0986 77.9573 51.3013 77.23 50.5015 76.4603C53.1783 73.5326 55.8536 70.1292 58.4647 66.3493C63.0573 65.9418 67.3962 65.2756 71.3309 64.366C71.5247 65.1477 71.6968 65.9144 71.8451 66.664ZM32.3876 84.8004C29.4626 85.8334 27.1329 85.863 25.7246 85.051C22.7281 83.3226 21.4823 76.651 23.1816 67.7016C23.3762 66.6767 23.6079 65.6239 23.8749 64.5478C27.7665 65.4083 32.0736 66.0275 36.6772 66.4007C39.3058 70.0994 42.0584 73.4992 44.8323 76.476C44.2262 77.0611 43.6226 77.6181 43.0223 78.143C39.3364 81.3648 35.6428 83.6507 32.3876 84.8004ZM18.6841 58.91C14.0518 57.3267 10.2262 55.269 7.60403 53.0235C5.24781 51.0057 4.0582 49.0023 4.0582 47.3768C4.0582 43.9175 9.21554 39.5052 17.8171 36.5063C18.8608 36.1424 19.9533 35.7995 21.0871 35.4773C22.2759 39.3443 23.8353 43.3872 25.7172 47.4755C23.811 51.6246 22.2294 55.732 21.0289 59.6442C20.2207 59.4119 19.4376 59.1674 18.6841 58.91ZM23.2776 27.642C21.4923 18.5177 22.678 11.6347 25.6617 9.90756C28.84 8.0676 35.8679 10.691 43.2751 17.2681C43.7485 17.6885 44.2239 18.1285 44.7006 18.5837C41.9404 21.5475 39.213 24.9217 36.6077 28.5986C32.1397 29.0127 27.8629 29.6779 23.9307 30.5687C23.6835 29.5743 23.4645 28.5972 23.2776 27.642ZM64.2563 37.7607C63.3163 36.137 62.3513 34.5517 61.3675 33.0097C64.3985 33.3928 67.3026 33.9015 70.0299 34.5239C69.2111 37.148 68.1906 39.8916 66.9893 42.7043C66.1276 41.0682 65.2161 39.4187 64.2563 37.7607ZM47.5453 21.4841C49.4172 23.5121 51.2919 25.7763 53.1357 28.233C51.2777 28.1452 49.3966 28.0995 47.5 28.0995C45.6213 28.0995 43.7541 28.1442 41.9076 28.2304C43.7533 25.7966 45.6441 23.5354 47.5453 21.4841ZM30.7273 37.7887C29.7883 39.417 28.8937 41.0576 28.0455 42.7012C26.8637 39.8984 25.8527 37.1423 25.0268 34.481C27.7373 33.8744 30.6277 33.3785 33.6395 33.0026C32.6418 34.5588 31.6688 36.1561 30.7273 37.7887ZM33.7262 62.0405C30.6145 61.6934 27.6806 61.2229 24.9708 60.6331C25.8099 57.9243 26.8432 55.1093 28.0501 52.2462C28.9005 53.8886 29.7986 55.5299 30.7433 57.1617C31.7057 58.8241 32.7028 60.4525 33.7262 62.0405ZM47.6576 73.5556C45.7341 71.4803 43.8155 69.1846 41.9417 66.7153C43.7607 66.7866 45.6152 66.8232 47.5 66.8232C49.4363 66.8232 51.3505 66.7795 53.2346 66.6956C51.3847 69.2095 49.5168 71.5087 47.6576 73.5556ZM67.028 52.1002C68.2978 54.9944 69.3682 57.7946 70.2181 60.4573C67.4636 61.0856 64.4897 61.5917 61.3563 61.9678C62.3425 60.405 63.316 58.7925 64.2726 57.1338C65.2403 55.4557 66.1592 53.775 67.028 52.1002ZM60.7572 55.1063C59.2721 57.6812 57.7476 60.1392 56.1998 62.4594C53.3807 62.661 50.4684 62.7648 47.5 62.7648C44.5436 62.7648 41.668 62.673 38.8988 62.4932C37.2886 60.1426 35.7309 57.6773 34.2553 55.1285C32.7837 52.5866 31.4295 50.0232 30.2022 47.4742C31.4292 44.9193 32.7801 42.353 34.2433 39.8157L34.243 39.8162C35.7101 37.2721 37.2541 34.8188 38.8494 32.4829C41.6747 32.2693 44.5719 32.1579 47.4998 32.1579C50.441 32.1579 53.342 32.2702 56.1665 32.4856C57.7374 34.8045 59.271 37.2498 60.7438 39.7942C62.2334 42.3672 63.6018 44.9164 64.8392 47.4165C63.6055 49.9596 62.2402 52.5345 60.7572 55.1063ZM69.1291 9.78683C72.3103 11.6214 73.5475 19.0201 71.5487 28.7222C71.4212 29.3412 71.2776 29.9718 71.1217 30.6108C67.1804 29.7014 62.9005 29.0247 58.4195 28.6043C55.8092 24.887 53.1041 21.5076 50.3889 18.5818C51.1189 17.8796 51.8479 17.2099 52.5738 16.578C59.5873 10.4744 66.1425 8.06456 69.1291 9.78683ZM47.5 38.8936C52.185 38.8936 55.9832 42.6916 55.9832 47.3768C55.9832 52.0618 52.185 55.86 47.5 55.86C42.8149 55.86 39.0168 52.0618 39.0168 47.3768C39.0168 42.6916 42.8149 38.8936 47.5 38.8936Z" fill="#00D8FF"/>
</svg>
